#!OML:ASF X:\für Bonn\!DataBase\2005_08_12_Daniel\c3d\Daniel.ASF
:FULLY-SPECIFIED
:DEGREES
183
root -17.1745 16.1044 -16.9332 -9.2156 43.9437 -719.192
lowerback 41.2953 -4.89444 -0.258269
upperback 11.6863 -5.56051 -2.30813
thorax -6.86493 -2.23814 -0.146057
lowerneck -7.28068 -4.70366 -8.74319
upperneck -5.43673 -5.531 5.63479
head -0.0410343 -2.59874 3.20907
rclavicle 8.34896e-015 -3.97569e-015
rhumerus -38.4662 -1.53335 -89.6973
rradius 38.2995
rwrist 5.6953
rhand -26.8618 24.6518
rfingers 7.12502
rthumb -0.286635 -5.32773
lclavicle 8.34896e-015 -3.97569e-015
lhumerus -1.19969 18.8996 94.6755
lradius 37.1171
lwrist -19.7111
lhand -21.3084 -5.48101
lfingers 7.12502
lthumb 5.07659 24.4382
rfemur -36.2179 12.8961 17.9545
rtibia 38.7341
rfoot -10.3044 -1.11697
rtoes -13.1378
lfemur 3.79009 1.40642 -23.7081
ltibia 57.7546
lfoot -37.6852 -11.9138
ltoes 1.03266
184
root -17.0829 16.0893 -16.839 -9.15095 43.9378 -719.233
lowerback 41.3719 -5.08721 -0.0409441
upperback 11.6526 -5.70328 -2.23446
thorax -6.93567 -2.30386 -0.117028
lowerneck -7.32227 -4.82544 -8.94468
upperneck -5.52798 -5.67263 5.75315
head -0.0421452 -2.66447 3.28262
rclavicle -2.5842e-014 3.89618e-014
rhumerus -38.5026 -1.38448 -89.6104
rradius 38.159
rwrist 5.61056
rhand -26.9511 24.6746
rfingers 7.12502
rthumb -0.372878 -5.30485
lclavicle -2.5842e-014 3.89618e-014
lhumerus -1.2397 18.9136 94.8674
lradius 37.4174
lwrist -19.6583
lhand -21.363 -5.49262
lfingers 7.12502
lthumb 5.02389 24.4278
rfemur -36.4108 12.4524 18.1682
rtibia 39.482
rfoot -9.1359 -0.551141
rtoes -11.2741
lfemur 4.17196 1.3753 -23.6707
ltibia 57.7706
lfoot -37.5244 -11.9788
ltoes 1.24345
185
root -16.9921 16.0756 -16.7444 -9.10508 43.931 -719.32
lowerback 41.4504 -5.27944 0.241718
upperback 11.6195 -5.81916 -2.16833
thorax -7.0121 -2.35562 -0.139206
lowerneck -7.35966 -4.96654 -9.15323
upperneck -5.62833 -5.83919 5.8981
head -0.0432597 -2.74242 3.36598
rclavicle -5.56597e-015 -1.19271e-014
rhumerus -38.5627 -1.28868 -89.518
rradius 38.0758
rwrist 5.60358
rhand -27.008 24.6096
rfingers 7.12502
rthumb -0.427815 -5.3697
lclavicle -5.56597e-015 -1.19271e-014
lhumerus -1.3025 18.8596 95.0184
lradius 37.6895
lwrist -19.6368
lhand -21.4231 -5.58114
lfingers 7.12502
lthumb 4.9658 24.3407
rfemur -36.6275 11.9449 18.4309
rtibia 40.2772
rfoot -8.19947 0.0161663
rtoes -9.94013
lfemur 4.53307 1.31989 -23.6052
ltibia 57.7857
lfoot -37.3482 -12.0564
ltoes 1.37553
186
root -16.9012 16.0623 -16.6497 -9.04659 43.9216 -719.409
lowerback 41.5435 -5.47597 0.483786
upperback 11.5782 -5.955 -2.09343
thorax -7.098 -2.41762 -0.122128
lowerneck -7.47107 -5.08384 -9.38573
upperneck -5.65282 -5.96658 6.04435
head -0.00856913 -2.80028 3.45318
rclavicle 6.79844e-014 -4.21423e-014
rhumerus -38.5599 -1.20258 -89.403
rradius 37.9206
rwrist 5.67086
rhand -27.0433 24.538
rfingers 7.12502
rthumb -0.461953 -5.44122
lclavicle 6.79844e-014 -4.21423e-014
lhumerus -1.42834 18.8265 95.1184
lradius 38.0289
lwrist -19.5297
lhand -21.4736 -5.58781
lfingers 7.12502
lthumb 4.9171 24.3351
rfemur -36.8731 11.4131 18.7024
rtibia 41.1143
rfoot -7.52582 0.521839
rtoes -9.51182
lfemur 4.87324 1.2678 -23.5527
ltibia 57.8015
lfoot -37.1719 -12.0416
ltoes 1.37888
187
root -16.8101 16.0495 -16.5535 -8.95648 43.9094 -719.496
lowerback 41.6116 -5.6548 0.734301
upperback 11.5266 -6.06805 -2.02927
thorax -7.18988 -2.46905 -0.129798
lowerneck -7.61253 -5.2117 -9.58717
upperneck -5.62442 -6.10842 6.1805
head 0.0489779 -2.86629 3.52887
rclavicle 3.97569e-016 2.78299e-014
rhumerus -38.5916 -1.19113 -89.2939
rradius 37.8046
rwrist 5.80042
rhand -27.0875 24.4367
rfingers 7.12502
rthumb -0.504607 -5.5425
lclavicle 3.97569e-016 2.78299e-014
lhumerus -1.62848 18.694 95.144
lradius 38.3916
lwrist -19.4055
lhand -21.4719 -5.63282
lfingers 7.12502
lthumb 4.91868 24.2901
rfemur -37.1462 10.9352 18.9521
rtibia 41.9694
rfoot -7.06115 0.954689
rtoes -9.56108
lfemur 5.17747 1.18908 -23.5127
ltibia 57.8159
lfoot -36.9433 -12.0372
ltoes 1.39232
188
root -16.7183 16.0385 -16.4556 -8.86862 43.883 -719.583
lowerback 41.6816 -5.80857 0.920553
upperback 11.4833 -6.17204 -1.93959
thorax -7.26441 -2.51794 -0.081805
lowerneck -7.82244 -5.3237 -9.7696
upperneck -5.57257 -6.22393 6.28623
head 0.122618 -2.91869 3.58943
rclavicle 7.35503e-014 -2.06736e-014
rhumerus -38.5732 -1.18132 -89.1569
rradius 37.6659
rwrist 5.98766
rhand -27.1315 24.2802
rfingers 7.12502
rthumb -0.54707 -5.69882
lclavicle 7.35503e-014 -2.06736e-014
lhumerus -1.82727 18.6366 95.1881
lradius 38.7608
lwrist -19.3189
lhand -21.4572 -5.68218
lfingers 7.12502
lthumb 4.93287 24.2404
rfemur -37.4056 10.5101 19.1969
rtibia 42.8177
rfoot -6.73097 1.34814
rtoes -9.86489
lfemur 5.47887 1.15664 -23.4575
ltibia 57.8271
lfoot -36.6982 -12.0049
ltoes 1.27028
